<?xml version="1.0" standalone="no"?>
<!DOCTYPE svg PUBLIC "-//W3C//DTD SVG 20010904//EN"
 "http://www.w3.org/TR/2001/REC-SVG-20010904/DTD/svg10.dtd">
<svg version="1.0" xmlns="http://www.w3.org/2000/svg"
 width="700.000000pt" height="700.000000pt" viewBox="0 0 700.000000 700.000000"
 preserveAspectRatio="xMidYMid meet">
<metadata>
Created by potrace 1.14, written by Peter Selinger 2001-2017
</metadata>
<g transform="translate(0.000000,700.000000) scale(0.100000,-0.100000)"
fill="#000000" stroke="none">
<path d="M977 6654 c-4 -4 -7 -1426 -7 -3161 l0 -3153 414 0 c597 0 751 17
921 100 218 107 325 273 376 590 8 52 14 359 19 1020 7 1049 3 988 76 1138 67
138 178 220 388 288 80 26 109 45 93 60 -3 3 -47 15 -99 26 -243 52 -394 199
-439 427 -7 36 -14 369 -18 946 -7 768 -10 907 -25 1015 -36 252 -93 388 -216
511 -86 87 -171 134 -310 170 -82 22 -106 23 -625 26 -297 3 -544 1 -548 -3z"/>
<path d="M4970 6653 c-77 -8 -209 -47 -280 -81 -55 -27 -95 -56 -150 -111
-128 -129 -177 -248 -221 -541 -8 -48 -14 -386 -18 -955 l-7 -880 -27 -80
c-37 -113 -90 -195 -180 -285 -88 -87 -157 -129 -266 -159 -41 -11 -76 -23
-79 -25 -12 -13 10 -33 49 -45 74 -22 190 -79 246 -122 60 -45 162 -168 197
-238 63 -123 60 -66 66 -1096 6 -905 7 -944 28 -1056 38 -205 95 -322 210
-430 106 -100 221 -153 404 -185 75 -14 188 -18 591 -21 l497 -5 -2 3159 -3
3158 -510 1 c-280 0 -526 -1 -545 -3z"/>
</g>
</svg>
