<?xml version="1.0" encoding="UTF-8" standalone="no"?>
<svg
   width="36"
   height="36"
   version="1.1"
   id="svg20"
   sodipodi:docname="logo.svg"
   inkscape:version="1.1 (c68e22c387, 2021-05-23)"
   xmlns:inkscape="http://www.inkscape.org/namespaces/inkscape"
   xmlns:sodipodi="http://sodipodi.sourceforge.net/DTD/sodipodi-0.dtd"
   xmlns:xlink="http://www.w3.org/1999/xlink"
   xmlns="http://www.w3.org/2000/svg"
   xmlns:svg="http://www.w3.org/2000/svg">
  <sodipodi:namedview
     id="namedview22"
     pagecolor="#ffffff"
     bordercolor="#666666"
     borderopacity="1.0"
     inkscape:pageshadow="2"
     inkscape:pageopacity="0.0"
     inkscape:pagecheckerboard="0"
     showgrid="false"
     inkscape:zoom="15.151515"
     inkscape:cx="36.663"
     inkscape:cy="17.754"
     inkscape:window-width="1920"
     inkscape:window-height="1026"
     inkscape:window-x="0"
     inkscape:window-y="26"
     inkscape:window-maximized="1"
     inkscape:current-layer="svg20" />
  <defs
     id="defs4">
    <path
       id="path-1"
       d="M 0,0 H 26 V 32.5 H 0 Z" />
    <path
       id="path-3"
       d="M 0,0 H 26 V 32.5 H 0 Z" />
  </defs>
  <g
     id="Page-1"
     stroke="none"
     stroke-width="1"
     fill="none"
     fill-rule="evenodd"
     transform="translate(5.0015005,1.7484233)">
    <g
       id="hero-logo-black">
      <g
         id="Clipped">
        <mask
           id="mask-2"
           fill="#ffffff">
          <use
             xlink:href="#path-1"
             id="use6"
             x="0"
             y="0"
             width="100%"
             height="100%" />
        </mask>
        <path
           d="M 8.959,13.505 C 8.919,13.199 8.892,12.859 8.879,12.487 A 15.327,15.327 0 0 1 8.87,11.961 V 5.572 C 8.87,4.543 8.794,3.665 8.64,2.94 8.486,2.214 8.214,1.624 7.824,1.167 7.434,0.711 6.91,0.39 6.246,0.202 5.585,0.015 5.134,-0.013 4.117,0.01 h -4.12 V 32.498 H 3.033 C 4.073,32.521 5.39,32.471 6.087,32.284 6.785,32.097 7.34,31.793 7.753,31.372 8.167,30.95 8.457,30.418 8.622,29.774 8.788,29.131 8.87,28.364 8.87,27.475 v -7.16 c 0,-0.2 0.003,-0.393 0.01,-0.58 a 7.07,7.07 0 0 1 0.135,-1.242 c 0.18,-0.611 0.49,-1.173 0.992,-1.55 0.699,-0.458 1.592,-0.669 1.658,-0.692 a 0.147,0.147 0 0 0 0.098,-0.095 0.1,0.1 0 0 0 0.003,-0.04 C 11.761,16.073 11.73,16.033 11.668,16.012 11.626,15.988 10.875,15.929 10.384,15.656 9.698,15.275 9.095,14.603 8.999,13.794 l -0.04,-0.29 z"
           id="Path"
           fill="#212121"
           fill-rule="nonzero"
           mask="url(#mask-2)" />
      </g>
      <g
         id="g16">
        <mask
           id="mask-4"
           fill="#ffffff">
          <use
             xlink:href="#path-3"
             id="use11"
             x="0"
             y="0"
             width="100%"
             height="100%" />
        </mask>
        <path
           d="M 21.877,0.01 C 20.86,-0.013 20.409,0.015 19.748,0.202 19.086,0.39 18.56,0.711 18.17,1.167 17.78,1.624 17.508,2.214 17.355,2.94 c -0.154,0.725 -0.23,1.603 -0.23,2.632 v 6.388 a 12.325,12.325 0 0 1 -0.046,1.145 3.521,3.521 0 0 1 -1.01,1.983 c -0.349,0.353 -0.714,0.639 -1.188,0.787 -0.335,0.105 -0.531,0.124 -0.554,0.137 a 0.158,0.158 0 0 0 -0.073,0.047 0.107,0.107 0 0 0 0.001,0.143 c 0.018,0.02 0.042,0.037 0.074,0.049 0.083,0.031 0.327,0.098 0.568,0.192 0.459,0.179 0.802,0.39 1.14,0.725 0.53,0.527 0.882,1.101 1.016,1.762 0.04,0.3 0.059,0.622 0.067,0.963 0.003,0.138 0.004,0.278 0.004,0.422 v 7.16 c 0,0.89 0.083,1.655 0.248,2.3 0.166,0.643 0.455,1.175 0.87,1.596 0.412,0.422 0.968,0.725 1.665,0.913 0.697,0.187 2.014,0.237 3.055,0.214 h 3.035 V 0.01 Z"
           id="path14"
           fill="#212121"
           fill-rule="nonzero"
           mask="url(#mask-4)" />
      </g>
    </g>
  </g>
</svg>
